<svg enable-background="new 0 0 576 576" viewBox="0 0 576 576" xmlns="http://www.w3.org/2000/svg"><path d="m289.37 450.23c-111.11 0-208.58-97.47-208.58-208.58 0-60.03 25.37-99.4 33.14-110.03 7.01-9.59 25.21-35.63 31.44-44.55l-32.48-45.67-5.92-8.33h10.22 172.19c51.15 0 103.3 21.93 143.08 60.17 41.91 40.29 65 93.17 65 148.91 0 66.3-21.68 94.56-32.1 108.15-.95 1.24-1.81 2.36-2.54 3.37-7.05 9.75-25.25 35.08-31.56 43.87l31.34 44.25 5.88 8.3-10.18.01c0 .01-123.75.13-168.93.13zm0-311.73c-28.8 0-54.88 9.84-73.43 27.7-19.45 18.73-29.73 44.82-29.73 75.45 0 27.82 10.68 53.8 30.08 73.17 19.37 19.34 45.33 29.99 73.08 29.99 29.72 0 55.21-9.36 73.72-27.05 19.25-18.42 29.43-44.73 29.43-76.1.01-58.81-44.34-103.16-103.15-103.16z" fill="#699b45"/><path d="m91.87 139.25h-2.73-22.09c-30.37 0-45.13-30.94-45.56-51.85-.24-11.8 4.81-29.09 16.62-41.15 8.45-8.62 19.06-13.17 30.69-13.17h18.45 2.71l1.58 2.2 35.01 48.75 2.19 3.05-2.17 3.07-33.13 46.87z" fill="#88b663"/><path d="m485 450.08-1.6-2.28-33.13-47.25-2.15-3.06 2.18-3.04 34.83-48.57 1.58-2.2h2.71 18.76c11.63 0 22.24 4.55 30.69 13.17 11.81 12.05 16.86 29.36 16.63 41.15-.43 20.91-15.2 51.85-45.56 51.85-5.75 0-21.98.19-22.15.19z" fill="#88b663"/><g fill="#699b45"><path d="m86.72 501.64c0 4.86-.63 9.01-1.9 12.46s-3.09 6.27-5.46 8.45-5.26 3.79-8.66 4.81-7.44 1.53-12.13 1.53h-12.64c-.9 0-1.66-.27-2.27-.8s-.92-1.4-.92-2.6v-46.16c0-1.2.31-2.07.92-2.6s1.37-.8 2.27-.8h13.59c4.72 0 8.72.55 12.01 1.66 3.29 1.1 6.06 2.74 8.31 4.91s3.96 4.85 5.13 8.04c1.17 3.2 1.75 6.9 1.75 11.1zm-11.13.37c0-2.51-.29-4.84-.88-7-.59-2.15-1.53-4.02-2.82-5.61-1.3-1.58-2.96-2.82-4.99-3.71-2.03-.88-4.7-1.33-8-1.33h-5.44v36.01h5.61c2.95 0 5.43-.38 7.45-1.15 2.02-.76 3.7-1.92 5.05-3.46s2.36-3.46 3.03-5.75c.66-2.27.99-4.95.99-8z"/><path d="m125.04 527.62c0 .38-.14.68-.41.9s-.7.37-1.29.47-1.45.14-2.6.14c-1.23 0-2.12-.05-2.68-.14-.56-.1-.96-.25-1.19-.47s-.35-.52-.35-.9v-2.91c-1.5 1.61-3.21 2.86-5.14 3.76-1.92.9-4.06 1.35-6.4 1.35-1.94 0-3.72-.25-5.34-.76-1.62-.5-3.03-1.25-4.21-2.25-1.19-.99-2.11-2.23-2.76-3.7s-.98-3.19-.98-5.16c0-2.13.42-3.98 1.25-5.54.83-1.57 2.07-2.86 3.72-3.89 1.65-1.02 3.7-1.78 6.16-2.27s5.31-.73 8.55-.73h3.56v-2.21c0-1.15-.12-2.15-.35-3.01s-.61-1.58-1.15-2.15c-.53-.57-1.24-1-2.13-1.27s-1.99-.41-3.29-.41c-1.72 0-3.25.19-4.6.57s-2.54.81-3.58 1.27-1.9.89-2.6 1.27-1.26.57-1.7.57c-.3 0-.57-.1-.8-.29s-.42-.46-.57-.82-.27-.79-.35-1.31-.12-1.09-.12-1.72c0-.85.07-1.51.21-2s.39-.93.78-1.33c.38-.4 1.05-.83 2.01-1.31.95-.48 2.07-.92 3.35-1.33s2.68-.74 4.19-1 3.08-.39 4.69-.39c2.86 0 5.31.28 7.35.84 2.03.56 3.7 1.42 5.01 2.58s2.26 2.65 2.86 4.48.9 4 .9 6.51zm-10.11-15.63h-3.93c-1.66 0-3.08.12-4.26.37-1.17.25-2.13.62-2.86 1.11-.74.49-1.27 1.08-1.62 1.78-.34.7-.51 1.49-.51 2.39 0 1.53.48 2.73 1.45 3.6s2.31 1.31 4.03 1.31c1.45 0 2.78-.37 3.99-1.1 1.21-.74 2.45-1.81 3.7-3.23v-6.23z"/><path d="m155.91 523.9c0 1.2-.08 2.12-.23 2.76s-.35 1.09-.59 1.35c-.25.26-.61.49-1.08.7-.48.2-1.04.38-1.68.53s-1.34.27-2.09.35-1.51.12-2.27.12c-2.05 0-3.82-.26-5.32-.78s-2.74-1.32-3.72-2.39c-.98-1.08-1.71-2.44-2.17-4.07-.46-1.64-.7-3.57-.7-5.81v-18.7h-4.38c-.52 0-.91-.32-1.19-.96-.27-.64-.41-1.71-.41-3.21 0-.79.03-1.46.1-2 .07-.55.17-.98.31-1.29s.31-.54.51-.67c.21-.14.44-.21.72-.21h4.34v-8.14c0-.27.07-.52.23-.74.15-.22.42-.4.82-.55.39-.15.93-.26 1.6-.33s1.49-.1 2.48-.1c1.01 0 1.85.04 2.52.1.67.07 1.19.18 1.58.33.38.15.65.33.82.55.16.22.25.46.25.74v8.14h7.94c.27 0 .51.07.72.21.2.14.37.36.51.67s.24.74.31 1.29c.07.54.1 1.21.1 2 0 1.5-.14 2.57-.41 3.21s-.67.96-1.19.96h-7.98v17.15c0 1.99.31 3.49.94 4.48.63 1 1.75 1.49 3.36 1.49.54 0 1.04-.05 1.47-.14.44-.1.82-.2 1.17-.33.34-.12.63-.23.86-.33s.44-.14.63-.14c.16 0 .32.05.47.14.15.1.27.29.35.57.08.29.16.67.23 1.17.04.49.07 1.12.07 1.88z"/><path d="m194.04 527.62c0 .38-.14.68-.41.9s-.7.37-1.29.47-1.45.14-2.6.14c-1.23 0-2.12-.05-2.68-.14-.56-.1-.96-.25-1.19-.47s-.35-.52-.35-.9v-2.91c-1.5 1.61-3.21 2.86-5.14 3.76-1.92.9-4.06 1.35-6.4 1.35-1.94 0-3.72-.25-5.34-.76-1.62-.5-3.03-1.25-4.21-2.25-1.19-.99-2.11-2.23-2.76-3.7s-.98-3.19-.98-5.16c0-2.13.42-3.98 1.25-5.54.83-1.57 2.07-2.86 3.72-3.89 1.65-1.02 3.7-1.78 6.16-2.27s5.31-.73 8.55-.73h3.56v-2.21c0-1.15-.12-2.15-.35-3.01s-.61-1.58-1.15-2.15c-.53-.57-1.24-1-2.13-1.27s-1.99-.41-3.29-.41c-1.72 0-3.25.19-4.6.57s-2.54.81-3.58 1.27-1.9.89-2.6 1.27-1.26.57-1.7.57c-.3 0-.57-.1-.8-.29s-.42-.46-.57-.82-.27-.79-.35-1.31-.12-1.09-.12-1.72c0-.85.07-1.51.21-2s.39-.93.78-1.33c.38-.4 1.05-.83 2.01-1.31.95-.48 2.07-.92 3.36-1.33 1.28-.41 2.68-.74 4.19-1s3.08-.39 4.69-.39c2.87 0 5.31.28 7.35.84 2.03.56 3.7 1.42 5.01 2.58s2.26 2.65 2.86 4.48.9 4 .9 6.51v24.56zm-10.11-15.63h-3.93c-1.66 0-3.08.12-4.26.37-1.17.25-2.13.62-2.86 1.11-.74.49-1.28 1.08-1.62 1.78s-.51 1.49-.51 2.39c0 1.53.48 2.73 1.45 3.6s2.31 1.31 4.03 1.31c1.45 0 2.77-.37 3.99-1.1 1.21-.74 2.45-1.81 3.7-3.23v-6.23z"/></g><g fill="#88b663"><path d="m237.72 491.45c0 2.65-.44 5.03-1.31 7.16s-2.12 3.94-3.74 5.44-3.62 2.66-5.98 3.48-5.18 1.23-8.45 1.23h-6.01v19.07c0 .22-.06.41-.18.57s-.32.29-.57.39c-.26.1-.61.18-1.06.25s-1.02.1-1.7.1-1.25-.03-1.7-.1-.81-.15-1.08-.25-.46-.22-.57-.39c-.11-.16-.16-.35-.16-.57v-48.86c0-1.09.29-1.87.86-2.33s1.21-.7 1.92-.7h11.34c1.15 0 2.24.05 3.29.14 1.05.1 2.29.3 3.72.61s2.89.9 4.38 1.76 2.75 1.92 3.78 3.17c1.04 1.26 1.83 2.71 2.39 4.36.55 1.66.83 3.48.83 5.47zm-7.41.57c0-2.15-.4-3.95-1.21-5.4-.81-1.44-1.8-2.52-2.99-3.23s-2.42-1.16-3.68-1.35c-1.27-.19-2.5-.29-3.7-.29h-6.5v21.24h6.34c2.13 0 3.89-.27 5.3-.82 1.41-.54 2.59-1.3 3.54-2.27.96-.97 1.68-2.13 2.17-3.48s.73-2.81.73-4.4z"/><path d="m277.76 509.04c0 3-.4 5.77-1.19 8.29s-1.97 4.7-3.54 6.53-3.53 3.25-5.89 4.28c-2.36 1.02-5.09 1.53-8.2 1.53-3.03 0-5.67-.45-7.92-1.35s-4.13-2.21-5.63-3.93-2.62-3.81-3.36-6.26c-.74-2.46-1.1-5.24-1.1-8.35 0-3 .39-5.76 1.17-8.29.78-2.52 1.95-4.7 3.52-6.53s3.52-3.24 5.87-4.26c2.35-1.01 5.09-1.51 8.23-1.51 3.03 0 5.67.45 7.92 1.35s4.13 2.21 5.63 3.93 2.63 3.8 3.38 6.26c.74 2.46 1.11 5.23 1.11 8.31zm-7.12.46c0-1.99-.18-3.87-.55-5.65-.37-1.77-.98-3.33-1.82-4.66-.85-1.34-1.99-2.39-3.44-3.17s-3.25-1.16-5.4-1.16c-1.99 0-3.7.35-5.14 1.06-1.43.71-2.61 1.71-3.54 3.01s-1.62 2.83-2.07 4.6-.68 3.71-.68 5.81c0 2.02.18 3.91.55 5.69.37 1.77.98 3.32 1.84 4.64s2.01 2.37 3.46 3.15 3.25 1.16 5.4 1.16c1.96 0 3.67-.35 5.11-1.06 1.45-.71 2.63-1.71 3.56-2.99s1.61-2.81 2.05-4.58c.46-1.78.67-3.72.67-5.85z"/><path d="m306.3 493.45c0 .6-.01 1.11-.04 1.51-.03.41-.08.73-.16.96s-.19.41-.31.53-.29.18-.51.18-.48-.06-.8-.18c-.31-.12-.67-.25-1.06-.37-.4-.12-.84-.24-1.33-.35s-1.02-.16-1.6-.16c-.68 0-1.35.14-2.01.41-.65.27-1.34.72-2.07 1.35-.72.63-1.48 1.46-2.27 2.5s-1.66 2.3-2.62 3.8v24.22c0 .22-.05.4-.16.55s-.29.28-.53.39c-.25.11-.59.19-1.02.25-.44.05-1 .08-1.68.08-.66 0-1.2-.03-1.64-.08-.44-.06-.78-.14-1.04-.25s-.44-.24-.53-.39c-.1-.15-.14-.33-.14-.55v-36.83c0-.22.04-.4.12-.55s.25-.29.49-.41.56-.21.94-.25.89-.06 1.51-.06c.6 0 1.1.02 1.49.06.4.04.7.12.92.25.22.12.37.26.47.41s.14.33.14.55v5.36c1.01-1.47 1.96-2.67 2.84-3.6.89-.93 1.73-1.66 2.52-2.19s1.58-.9 2.35-1.1c.78-.21 1.56-.31 2.35-.31.35 0 .76.02 1.21.06s.92.12 1.41.22c.49.11.93.23 1.33.37s.67.27.84.41c.16.14.27.27.33.39.05.12.1.28.14.47s.07.47.08.84c.03.39.04.89.04 1.51z"/><path d="m334.82 525.17c0 .79-.05 1.42-.16 1.88s-.27.81-.49 1.02c-.22.22-.55.42-.98.61s-.93.35-1.49.47-1.15.22-1.78.31c-.63.08-1.25.12-1.88.12-1.91 0-3.55-.25-4.91-.76-1.36-.5-2.48-1.27-3.35-2.29s-1.51-2.32-1.9-3.89-.59-3.42-.59-5.54v-21.52h-5.16c-.41 0-.74-.22-.98-.65-.25-.44-.37-1.15-.37-2.13 0-.52.03-.95.1-1.31.07-.35.16-.65.27-.88s.25-.39.43-.49.38-.14.59-.14h5.12v-8.76c0-.19.05-.37.14-.53s.27-.31.53-.43.61-.21 1.04-.27c.44-.05.98-.08 1.64-.08.68 0 1.24.03 1.68.08s.78.14 1.02.27c.25.12.42.27.53.43s.16.34.16.53v8.76h9.45c.22 0 .41.05.57.14.16.1.31.26.43.49s.21.53.27.88c.06.36.08.79.08 1.31 0 .98-.12 1.69-.37 2.13-.25.43-.57.65-.98.65h-9.45v20.54c0 2.54.37 4.45 1.12 5.75s2.09 1.94 4.03 1.94c.63 0 1.19-.06 1.68-.18.49-.13.93-.25 1.31-.39.38-.13.71-.27.98-.39s.52-.18.74-.18c.14 0 .27.03.39.1s.22.2.29.39.13.45.18.78c.04.33.07.74.07 1.23z"/><path d="m370.48 527.91c0 .33-.11.57-.33.74-.22.16-.52.29-.9.37s-.94.12-1.68.12c-.71 0-1.28-.04-1.7-.12s-.73-.2-.92-.37c-.19-.16-.29-.41-.29-.74v-3.68c-1.61 1.72-3.4 3.06-5.38 4.01-1.98.96-4.07 1.43-6.28 1.43-1.94 0-3.69-.25-5.26-.76-1.57-.5-2.91-1.23-4.01-2.19-1.1-.95-1.96-2.13-2.58-3.52-.61-1.39-.92-2.97-.92-4.75 0-2.07.42-3.87 1.27-5.4s2.06-2.8 3.64-3.81 3.52-1.77 5.81-2.27 4.87-.76 7.73-.76h5.07v-2.86c0-1.42-.15-2.67-.45-3.76s-.78-2-1.45-2.72-1.53-1.27-2.6-1.64c-1.06-.37-2.37-.55-3.93-.55-1.66 0-3.16.2-4.48.59-1.32.4-2.48.83-3.48 1.31s-1.83.91-2.5 1.31-1.17.59-1.49.59c-.22 0-.41-.05-.57-.16s-.31-.27-.43-.49-.21-.5-.26-.84c-.06-.34-.08-.72-.08-1.12 0-.68.05-1.22.14-1.62.1-.4.33-.77.7-1.13.37-.35 1-.77 1.9-1.25s1.94-.91 3.11-1.31 2.46-.72 3.85-.98 2.79-.39 4.21-.39c2.65 0 4.9.3 6.75.9s3.35 1.48 4.5 2.64 1.98 2.6 2.5 4.32.78 3.73.78 6.02v24.84zm-6.71-16.82h-5.77c-1.85 0-3.46.16-4.83.47-1.37.32-2.5.78-3.4 1.39s-1.56 1.35-1.99 2.21c-.42.86-.63 1.85-.63 2.97 0 1.91.61 3.43 1.82 4.56s2.91 1.7 5.09 1.7c1.77 0 3.42-.45 4.93-1.35s3.1-2.28 4.77-4.13v-7.82z"/><path d="m414.66 508.96c0 3.19-.35 6.06-1.04 8.61-.7 2.55-1.72 4.72-3.07 6.53-1.35 1.8-3.01 3.18-4.97 4.13-1.96.96-4.21 1.43-6.75 1.43-1.17 0-2.26-.12-3.25-.35-1-.23-1.97-.61-2.93-1.13-.95-.52-1.91-1.17-2.86-1.96-.96-.79-1.96-1.75-3.03-2.86v4.5c0 .22-.05.41-.16.57s-.29.29-.53.39c-.25.1-.55.17-.92.23-.37.05-.84.08-1.41.08-.55 0-1.01-.03-1.39-.08-.38-.06-.7-.13-.94-.23-.25-.1-.41-.22-.49-.39-.08-.16-.12-.35-.12-.57v-54.66c0-.22.05-.41.14-.57s.27-.3.53-.41.61-.19 1.04-.25c.44-.05.98-.08 1.64-.08.68 0 1.24.03 1.68.08s.78.14 1.02.25c.25.11.42.25.53.41s.16.35.16.57v22.06c1.09-1.12 2.15-2.06 3.17-2.82s2.03-1.39 3.01-1.86c.98-.48 1.96-.82 2.95-1.04.98-.22 2.02-.33 3.11-.33 2.67 0 4.96.53 6.85 1.6 1.9 1.06 3.44 2.49 4.62 4.28 1.19 1.79 2.05 3.88 2.6 6.28.54 2.38.81 4.92.81 7.59zm-7.12.78c0-1.88-.14-3.71-.43-5.48s-.78-3.34-1.49-4.71c-.71-1.36-1.65-2.46-2.82-3.29s-2.63-1.25-4.38-1.25c-.87 0-1.73.12-2.58.37s-1.71.65-2.58 1.23c-.87.57-1.78 1.31-2.72 2.21s-1.94 2.03-3.01 3.4v14.69c1.86 2.26 3.63 3.99 5.32 5.18s3.45 1.78 5.28 1.78c1.69 0 3.14-.41 4.34-1.23s2.17-1.9 2.93-3.25c.75-1.35 1.29-2.87 1.64-4.54.33-1.69.5-3.39.5-5.11z"/><path d="m430.83 478.6c0 1.58-.3 2.66-.9 3.23s-1.71.86-3.31.86c-1.58 0-2.67-.28-3.25-.84-.59-.56-.88-1.62-.88-3.17 0-1.58.3-2.66.9-3.23s1.71-.86 3.32-.86c1.58 0 2.67.28 3.25.84s.87 1.62.87 3.17zm-.78 49.27c0 .22-.05.4-.16.55s-.29.28-.53.39c-.25.11-.59.19-1.02.25-.44.05-1 .08-1.68.08-.65 0-1.2-.03-1.64-.08-.44-.06-.79-.14-1.04-.25-.26-.11-.44-.24-.53-.39s-.14-.33-.14-.55v-36.83c0-.19.05-.37.14-.53s.27-.3.53-.41.61-.19 1.04-.25c.44-.05.98-.08 1.64-.08.68 0 1.24.03 1.68.08.44.06.78.14 1.02.25s.42.25.53.41c.11.17.16.34.16.53z"/><path d="m447.61 527.87c0 .22-.05.4-.16.55s-.29.28-.53.39c-.25.11-.59.19-1.02.25-.44.05-1 .08-1.68.08-.66 0-1.2-.03-1.64-.08-.44-.06-.79-.14-1.04-.25-.26-.11-.44-.24-.53-.39s-.14-.33-.14-.55v-54.67c0-.22.05-.41.14-.57s.27-.3.53-.41.61-.19 1.04-.25c.44-.05.98-.08 1.64-.08.68 0 1.24.03 1.68.08s.78.14 1.02.25c.25.11.42.25.53.41s.16.35.16.57z"/><path d="m466.61 478.6c0 1.58-.3 2.66-.9 3.23s-1.71.86-3.31.86c-1.58 0-2.67-.28-3.25-.84-.59-.56-.88-1.62-.88-3.17 0-1.58.3-2.66.9-3.23s1.71-.86 3.31-.86c1.58 0 2.67.28 3.25.84.59.56.88 1.62.88 3.17zm-.77 49.27c0 .22-.05.4-.16.55s-.29.28-.53.39c-.25.11-.59.19-1.02.25-.44.05-1 .08-1.68.08-.65 0-1.2-.03-1.64-.08-.44-.06-.78-.14-1.04-.25s-.44-.24-.53-.39-.14-.33-.14-.55v-36.83c0-.19.05-.37.14-.53.1-.16.27-.3.53-.41s.61-.19 1.04-.25c.44-.05.98-.08 1.64-.08.68 0 1.24.03 1.68.08.44.06.78.14 1.02.25.25.11.42.25.53.41.11.17.16.34.16.53z"/><path d="m495.79 525.17c0 .79-.06 1.42-.16 1.88-.11.46-.27.81-.49 1.02-.22.22-.55.42-.98.61-.44.19-.94.35-1.5.47s-1.15.22-1.78.31c-.63.08-1.25.12-1.88.12-1.91 0-3.55-.25-4.91-.76-1.36-.5-2.48-1.27-3.36-2.29-.87-1.02-1.51-2.32-1.9-3.89-.4-1.57-.59-3.42-.59-5.54v-21.52h-5.16c-.41 0-.74-.22-.98-.65-.25-.44-.37-1.15-.37-2.13 0-.52.03-.95.1-1.31.07-.35.16-.65.27-.88s.25-.39.43-.49.38-.14.59-.14h5.12v-8.76c0-.19.05-.37.14-.53.1-.16.27-.31.53-.43s.61-.21 1.04-.27c.44-.05.98-.08 1.64-.08.68 0 1.24.03 1.68.08s.78.14 1.02.27c.25.12.42.27.53.43s.16.34.16.53v8.76h9.45c.22 0 .41.05.57.14.16.1.31.26.43.49s.21.53.27.88c.05.36.08.79.08 1.31 0 .98-.12 1.69-.37 2.13-.25.43-.57.65-.98.65h-9.45v20.54c0 2.54.37 4.45 1.12 5.75s2.09 1.94 4.03 1.94c.63 0 1.19-.06 1.68-.18.49-.13.93-.25 1.31-.39.38-.13.71-.27.98-.39s.52-.18.74-.18c.14 0 .27.03.39.1s.22.2.29.39.13.45.18.78c.06.33.09.74.09 1.23z"/><path d="m521.49 528.89-4.91 13.54c-.16.44-.58.77-1.25 1s-1.68.35-3.05.35c-.71 0-1.28-.03-1.72-.1s-.77-.18-1-.35c-.23-.16-.36-.38-.39-.66-.03-.27.04-.6.21-.98l5.07-12.81c-.24-.11-.48-.29-.7-.53-.22-.25-.37-.5-.45-.78l-13.13-35.19c-.22-.57-.33-1.02-.33-1.35s.11-.59.33-.78.57-.32 1.06-.39 1.15-.1 1.96-.1c.82 0 1.46.02 1.92.06s.83.12 1.1.22c.27.11.47.27.59.47.12.21.25.48.39.84l10.52 29.54h.12l10.17-29.69c.16-.52.36-.85.59-1s.58-.26 1.04-.33 1.13-.1 2-.1c.76 0 1.39.03 1.88.1s.85.2 1.08.39.35.45.35.78-.08.74-.25 1.23z"/></g><path d="m498.7 323.4c0 .08 0 .16-.01.22s-.02.11-.04.16c-.02.04-.04.07-.07.09s-.05.03-.09.03h-1.38v4.43c0 .03-.01.06-.03.08s-.05.04-.1.06c-.04.02-.11.03-.18.04-.08.01-.17.01-.29.01s-.21 0-.29-.01-.14-.02-.19-.04c-.04-.02-.08-.04-.1-.06s-.03-.05-.03-.08v-4.43h-1.35c-.04 0-.07-.01-.1-.03s-.05-.05-.07-.09-.04-.09-.05-.16c-.01-.06-.01-.13-.01-.22s0-.17.01-.24.03-.12.05-.17c.02-.04.05-.07.07-.09.03-.02.06-.03.1-.03h3.94c.03 0 .06.01.09.03s.05.05.07.09.03.1.04.17c0 .07.01.15.01.24zm7.59 4.93c0 .03-.01.06-.02.08-.02.02-.04.04-.08.06s-.09.03-.17.04c-.07.01-.16.01-.27.01-.12 0-.21 0-.28-.01s-.12-.02-.17-.04c-.04-.02-.07-.04-.08-.06s-.02-.05-.02-.08v-4.36h-.02l-1.63 4.39c-.01.05-.07.09-.17.12s-.24.04-.42.04c-.16 0-.28-.01-.37-.04s-.15-.07-.17-.12l-1.59-4.39h-.02v4.36c0 .03-.01.06-.02.08-.02.02-.05.04-.09.06s-.1.03-.17.04-.16.01-.26.01c-.12 0-.21 0-.28-.01s-.13-.02-.17-.04-.07-.04-.09-.06-.02-.05-.02-.08v-5c0-.14.04-.25.13-.34.08-.08.19-.12.31-.12h.74c.13 0 .24.01.33.03s.17.06.24.11.13.12.18.21.1.2.14.33l1.22 3.36 1.3-3.36c.08-.23.19-.4.31-.51s.29-.17.52-.17h.72c.13 0 .24.04.32.12s.12.19.12.34z" fill="#699b45"/></svg>